PathFileType	4	(X/Y/Z)	Patient4_TMGait_0pt4_03_right_14.trc.trc
DataRate	CameraRate	NumFrames	NumMarkers	Units	OrigDataRate	OrigDataStartFrame	OrigNumFrames
74.074074074074	74.074074074074	4	33	mm	74.074074074074	71	       141
Frame#	Time	Sacral			L.Shoulder			Chest			R.Shoulder			Neck			R.ASIS			L.ASIS			R.Thigh.Superior			R.Thigh.Lateral			R.Thigh.Inferior			R.Patella			L.Thigh.Superior			L.Thigh.Lateral			L.Thigh.Inferior			L.Patella			L.Shank.Superior			L.Shank.Lateral			L.Shank.Inferior			R.Shank.Superior			R.Shank.Lateral			R.Shank.Inferior			R.Heel			R.Midfoot.Superior			R.Midfoot.Lateral			R.Toe			L.Heel			L.Midfoot.Lateral			L.Midfoot.Superior			L.Toe			L.Elbow			L.Wrist			R.Elbow			R.Wrist			
		X1	Y1	Z1	X2	Y2	Z2	X3	Y3	Z3	X4	Y4	Z4	X5	Y5	Z5	X6	Y6	Z6	X7	Y7	Z7	X8	Y8	Z8	X9	Y9	Z9	X10	Y10	Z10	X11	Y11	Z11	X12	Y12	Z12	X13	Y13	Z13	X14	Y14	Z14	X15	Y15	Z15	X16	Y16	Z16	X17	Y17	Z17	X18	Y18	Z18	X19	Y19	Z19	X20	Y20	Z20	X21	Y21	Z21	X22	Y22	Z22	X23	Y23	Z23	X24	Y24	Z24	X25	Y25	Z25	X26	Y26	Z26	X27	Y27	Z27	X28	Y28	Z28	X29	Y29	Z29	X30	Y30	Z30	X31	Y31	Z31	X32	Y32	Z32	X33	Y33	Z33	

71	18.335000000000	834.788854803235	1002.025482851158	522.631794213841	997.641666179076	1431.001941499945	337.963230820954	1118.171581772707	1357.182277039012	484.073779009057	1058.078324566011	1425.819039204349	669.375085881670	1001.888792136241	1489.857827537569	497.110347079598	1068.553033610060	933.305208487108	622.250340400355	1037.580741965766	957.465098832720	350.645402943506	1073.400025514244	724.458736493543	592.653588137874	975.451787520388	625.954280578084	656.357987954440	1037.741078831186	563.972549124439	575.131771446862	1021.361843261308	477.507118239430	579.794482417835	1108.138757099214	764.815940075990	374.063678909749	1051.552768545042	639.373776919188	296.766115360951	1152.740185054271	575.803504186678	355.171513435840	1173.968001694170	508.231401056287	351.215954149901	1151.714831419437	436.487491937684	339.112373033947	1073.977822127126	314.782137716799	284.742147857088	1150.698049025789	206.468177471597	337.194913337169	981.888394236868	392.327588392155	586.474738952904	898.135518226998	298.830503951524	650.687945045425	922.990469893833	200.125726069856	584.059682195955	771.830518958739	43.476079413502	555.085388744681	943.410704951165	95.636426365518	589.326657880633	855.577219702471	36.720111966253	628.592140673813	1063.748091081843	41.516326060546	616.212332636481	1049.149602905401	39.215238243132	369.726825509619	1123.779428469164	37.962576722563	290.291218990243	1202.864598154096	105.132961442569	315.896430507075	1332.912198670367	61.263999018286	288.841336510049	885.163860494165	1095.442866881469	234.262052052561	908.095100065283	835.947221228964	198.926938761331	1131.944574479110	1084.740563630702	785.776974550188	1354.504188277466	971.515756490661	719.952082119111	
72	18.348500000000	835.780905029080	1001.582695856813	520.028821452945	998.242366320646	1430.231569853978	334.691151836022	1118.692260592760	1356.851027861845	481.068139782113	1058.182130102848	1425.566022950927	666.219337470573	1002.232030058010	1489.319143271582	493.796833814984	1069.420106602719	932.876813149659	620.262366883237	1038.863156624290	956.495167119116	348.576074199249	1073.065752616974	723.458608546197	591.480591514403	973.661204946441	625.864758336709	654.841384038450	1035.708563130743	563.098053154639	574.187818310354	1018.390541404574	476.739692801930	578.600633572534	1109.287486872512	763.402434169831	373.263591657498	1052.002208233856	637.998177523019	296.615169144794	1152.880560538626	574.541169377459	355.718173290472	1173.061058764565	505.929585475717	352.274390048878	1150.057688558288	433.864486513774	339.961250002896	1070.467351584736	313.332478627511	285.512804501474	1144.651612929989	203.742072529548	338.845183882507	978.461650149764	391.991760119402	585.558451936070	894.108369761431	299.254556521872	650.121828893239	918.283151312409	200.139734642442	583.776799091064	766.454683132725	43.830692338316	555.220430435072	938.052887124404	95.643356964906	589.395804234353	850.192879411967	36.773715573064	628.607857100513	1058.337464896021	41.345274581676	616.252274799502	1039.418372468396	38.706817405054	370.731356028316	1114.553944961999	36.625487208354	291.674844579827	1194.777721471352	101.958950826245	318.495930012396	1324.481249214002	55.732136620158	292.035792820466	885.934946898969	1094.490675245226	231.429734097430	910.526207724152	835.056524855242	196.318287654318	1130.229122193258	1084.256554399421	783.331813589437	1352.175663634114	970.344215532230	716.899041624342	
73	18.362000000000	836.793558789273	1001.292746557895	517.394465770505	999.016729016176	1429.523899718392	331.266619227447	1119.359084553613	1356.574000255889	477.927819960295	1058.452883339425	1425.465113390163	662.895029634081	1002.718066676989	1488.886764238978	490.287893869731	1070.278904991898	932.499535647690	618.123984532830	1040.097601913516	955.656602723367	346.438052874406	1072.846045138347	722.543457308654	590.188655399598	972.107343692674	625.813606744651	653.229381750321	1033.967769584266	562.302775612095	573.144291990476	1015.773893643406	475.983223547006	577.347214438218	1110.362703119338	762.176689777926	372.396029780032	1052.465165951069	636.967161482700	296.164194399573	1153.031465028852	573.572461283177	355.965477570890	1172.153890122734	504.039734666343	352.980817912364	1148.602318649251	431.708980489613	340.396651557443	1067.576633670674	312.210578256800	285.753051582779	1139.388720697071	201.593050726280	339.958486806563	975.291854997241	391.683384306975	584.582816028786	890.278509003359	299.787936527761	649.508765397709	913.734073132249	200.237299051966	583.482612159718	761.115686355842	44.382153107690	555.382443794281	932.769103517122	95.697728798847	589.485524243997	844.849085899559	36.913014394643	628.633660081944	1052.955596307404	41.124409122288	616.303828140968	1031.042346031387	38.386544422604	371.289388539347	1106.563877003517	35.769569686166	292.521639235084	1187.599275763085	99.651180821061	320.401962978758	1317.066366996371	51.674810007969	294.361794338626	887.100857270039	1093.555522449072	228.308867865719	913.642423710481	834.211371416931	193.386403983428	1128.211306686257	1083.867318293023	780.828642405169	1349.291737329287	968.515774284635	714.177152536742	
74	18.375500000000	837.796368998021	1001.171814153781	514.738724489091	999.939933699713	1428.901732906846	327.732518396556	1120.160730521687	1356.351735609461	474.675688917131	1058.914317896724	1425.525793689574	659.431833319229	1003.343995589225	1488.575248823660	486.624305883923	1071.102222618488	932.187884194629	615.839544663365	1041.240266038192	954.988664521147	344.192218378534	1072.704070745443	721.749122887854	588.724169060935	970.820087534797	625.808888889634	651.520862378592	1032.543847633787	561.606004496786	571.977831666363	1013.574560939819	475.230730302441	576.055619337915	1111.388559989560	761.267209222450	371.424282032334	1053.052663996455	636.323207342466	295.387567498566	1153.277536846441	572.928986281596	355.855917132439	1171.349158098693	502.590409564634	353.287885892541	1147.411088013767	430.025637263048	340.446783768420	1065.322139094470	311.435780251387	285.486534890575	1134.865865710384	199.999648117090	340.592270913375	972.414149833395	391.401189817762	583.556143579642	886.669527691579	300.438172893376	648.845414436804	909.361223562639	200.426366356467	583.177754597740	755.817078089685	45.169864303534	555.565300438309	927.572179899832	95.808203392166	589.595171043280	839.549346254886	37.160826896089	628.670157239515	1047.606088809128	40.851047496756	616.366362908513	1023.918528370581	38.234436964095	371.494984671221	1099.699567076947	35.324764413724	292.921432159874	1181.260046798980	98.144051061618	321.650397771312	1310.581949689069	48.968431651903	295.847256791195	888.683413769982	1092.655249991330	224.907917399109	917.431900955511	833.434539638891	190.152962021835	1125.902131814883	1083.586698139671	778.265959528378	1345.841190746284	966.023681757362	711.791399475815	
